<svg width="160" height="168" viewBox="0 0 160 168" fill="none" xmlns="http://www.w3.org/2000/svg">
<g filter="url(#filter0_d_1_441)">
<path d="M11.1973 152.61H15.5586V154.49H11.1973V159.432H9.19922V154.49H4.83789V152.61H9.19922V148.045H11.1973V152.61Z" fill="#E5E5E5"/>
<path d="M46.1973 117.61H50.5586V119.49H46.1973V124.432H44.1992V119.49H39.8379V117.61H44.1992V113.045H46.1973V117.61Z" fill="#E5E5E5"/>
<path d="M81.1973 12.6104H85.5586V14.4902H81.1973V19.4316H79.1992V14.4902H74.8379V12.6104H79.1992V8.04492H81.1973V12.6104Z" fill="#E5E5E5"/>
<path d="M81.1973 47.6104H85.5586V49.4902H81.1973V54.4316H79.1992V49.4902H74.8379V47.6104H79.1992V43.0449H81.1973V47.6104Z" fill="#E5E5E5"/>
<path d="M81.1973 82.6104H85.5586V84.4902H81.1973V89.4316H79.1992V84.4902H74.8379V82.6104H79.1992V78.0449H81.1973V82.6104Z" fill="#6246E5"/>
<path d="M81.1973 117.61H85.5586V119.49H81.1973V124.432H79.1992V119.49H74.8379V117.61H79.1992V113.045H81.1973V117.61Z" fill="#E5E5E5"/>
<path d="M81.1973 152.61H85.5586V154.49H81.1973V159.432H79.1992V154.49H74.8379V152.61H79.1992V148.045H81.1973V152.61Z" fill="#E5E5E5"/>
<path d="M120.559 12.6104V14.4795H109.838V12.6104H120.559ZM116.197 8.04492V19.4316H114.21V8.04492H116.197Z" fill="#E5E5E5"/>
<path d="M116.197 47.6104H120.559V49.4902H116.197V54.4316H114.199V49.4902H109.838V47.6104H114.199V43.0449H116.197V47.6104Z" fill="#E5E5E5"/>
<path d="M116.197 82.6104H120.559V84.4902H116.197V89.4316H114.199V84.4902H109.838V82.6104H114.199V78.0449H116.197V82.6104Z" fill="#E5E5E5"/>
<path d="M116.197 117.61H120.559V119.49H116.197V124.432H114.199V119.49H109.838V117.61H114.199V113.045H116.197V117.61Z" fill="#E5E5E5"/>
<path d="M116.197 152.61H120.559V154.49H116.197V159.432H114.199V154.49H109.838V152.61H114.199V148.045H116.197V152.61Z" fill="#E5E5E5"/>
<path d="M151.197 12.6104H155.559V14.4902H151.197V19.4316H149.199V14.4902H144.838V12.6104H149.199V8.04492H151.197V12.6104Z" fill="#FF7152"/>
<path d="M151.197 47.6104H155.559V49.4902H151.197V54.4316H149.199V49.4902H144.838V47.6104H149.199V43.0449H151.197V47.6104Z" fill="#E5E5E5"/>
<path d="M151.197 82.6104H155.559V84.4902H151.197V89.4316H149.199V84.4902H144.838V82.6104H149.199V78.0449H151.197V82.6104Z" fill="#E5E5E5"/>
<path d="M151.197 117.61H155.559V119.49H151.197V124.432H149.199V119.49H144.838V117.61H149.199V113.045H151.197V117.61Z" fill="#E5E5E5"/>
<path d="M151.197 152.61H155.559V154.49H151.197V159.432H149.199V154.49H144.838V152.61H149.199V148.045H151.197V152.61Z" fill="#E5E5E5"/>
</g>
<defs>
<filter id="filter0_d_1_441" x="0.837891" y="8.04492" width="158.721" height="159.387" filterUnits="userSpaceOnUse" color-interpolation-filters="sRGB">
<feFlood flood-opacity="0" result="BackgroundImageFix"/>
<feColorMatrix in="SourceAlpha" type="matrix" values="0 0 0 0 0 0 0 0 0 0 0 0 0 0 0 0 0 0 127 0" result="hardAlpha"/>
<feOffset dy="4"/>
<feGaussianBlur stdDeviation="2"/>
<feComposite in2="hardAlpha" operator="out"/>
<feColorMatrix type="matrix" values="0 0 0 0 0 0 0 0 0 0 0 0 0 0 0 0 0 0 0.25 0"/>
<feBlend mode="normal" in2="BackgroundImageFix" result="effect1_dropShadow_1_441"/>
<feBlend mode="normal" in="SourceGraphic" in2="effect1_dropShadow_1_441" result="shape"/>
</filter>
</defs>
</svg>
