<svg width="14" height="16" fill="none" xmlns="http://www.w3.org/2000/svg"><path d="M4.79 16C2.407 15.986.437 11.125.437 8.65c0-4.044 3.034-4.93 4.203-4.93.527 0 1.09.207 1.586.39.347.128.706.26.905.26.12 0 .401-.112.65-.21.53-.212 1.19-.474 1.958-.474h.004c.574 0 2.313.126 3.358 1.696l.245.368-.352.266c-.504.38-1.423 1.073-1.423 2.446 0 1.626 1.04 2.251 1.54 2.552.221.133.45.27.45.569 0 .195-1.56 4.393-3.826 4.393-.554 0-.946-.167-1.292-.314-.35-.149-.65-.277-1.15-.277-.252 0-.572.12-.91.246-.462.173-.985.369-1.58.369H4.79ZM9.98 0c.059 2.127-1.463 3.603-2.983 3.51C6.747 1.814 8.518 0 9.98 0Z" fill="#fff"/></svg>