<svg width="16" height="16" fill="none" xmlns="http://www.w3.org/2000/svg"><path d="M.267 15.467h1.6v-8.8c0-.148.12-.267.266-.267h3.734V.267c0-.148.12-.267.266-.267h6.934c.147 0 .266.12.266.267v15.2h2.4a.267.267 0 1 1 0 .533H.267a.267.267 0 0 1 0-.533Zm10.133 0h1.067v-2.4a.267.267 0 0 0-.267-.267h-.533a.267.267 0 0 0-.267.267v2.4Zm-1.067-8.8v8.8h.534v-2.4a.8.8 0 0 1 .8-.8h.533a.8.8 0 0 1 .8.8v2.4h.8V.533H6.4V6.4h2.667c.147 0 .266.12.266.267Zm-6.933 8.8h6.4V6.933H2.4v8.534Z" fill="#84829A"/><path d="M7.467 3.733h1.6c.147 0 .266.12.266.267v1.6c0 .147-.12.267-.266.267h-1.6A.267.267 0 0 1 7.2 5.6V4c0-.147.12-.267.267-.267Zm.266 1.6H8.8V4.267H7.733v1.066ZM7.467 1.067h1.6c.147 0 .266.12.266.266v1.6c0 .148-.12.267-.266.267h-1.6a.267.267 0 0 1-.267-.267v-1.6c0-.147.12-.266.267-.266Zm.266 1.6H8.8V1.6H7.733v1.067ZM10.133 3.733h1.6c.148 0 .267.12.267.267v1.6c0 .147-.12.267-.267.267h-1.6a.267.267 0 0 1-.266-.267V4c0-.147.12-.267.266-.267Zm.267 1.6h1.067V4.267H10.4v1.066ZM10.133 1.067h1.6c.148 0 .267.12.267.266v1.6c0 .148-.12.267-.267.267h-1.6a.267.267 0 0 1-.266-.267v-1.6c0-.147.12-.266.266-.266Zm.267 1.6h1.067V1.6H10.4v1.067ZM10.133 6.4h1.6c.148 0 .267.12.267.267v1.6c0 .147-.12.266-.267.266h-1.6a.267.267 0 0 1-.266-.266v-1.6c0-.148.12-.267.266-.267ZM10.4 8h1.067V6.933H10.4V8ZM10.133 9.067h1.6c.148 0 .267.119.267.266v1.6c0 .148-.12.267-.267.267h-1.6a.267.267 0 0 1-.266-.267v-1.6c0-.147.12-.266.266-.266Zm.267 1.6h1.067V9.6H10.4v1.067ZM5.067 12.267h-1.6A.267.267 0 0 1 3.2 12v-1.6c0-.147.12-.267.267-.267h1.6c.147 0 .266.12.266.267V12c0 .147-.12.267-.266.267Zm-.267-1.6H3.733v1.066H4.8v-1.066ZM5.067 9.6h-1.6a.267.267 0 0 1-.267-.267v-1.6c0-.147.12-.266.267-.266h1.6c.147 0 .266.119.266.266v1.6c0 .147-.12.267-.266.267ZM4.8 8H3.733v1.067H4.8V8ZM5.067 14.933h-1.6a.267.267 0 0 1-.267-.266v-1.6c0-.148.12-.267.267-.267h1.6c.147 0 .266.12.266.267v1.6c0 .147-.12.266-.266.266Zm-.267-1.6H3.733V14.4H4.8v-1.067ZM7.733 12.267h-1.6A.267.267 0 0 1 5.867 12v-1.6c0-.147.12-.267.266-.267h1.6c.148 0 .267.12.267.267V12c0 .147-.12.267-.267.267Zm-.266-1.6H6.4v1.066h1.067v-1.066ZM7.733 9.6h-1.6a.267.267 0 0 1-.266-.267v-1.6c0-.147.12-.266.266-.266h1.6c.148 0 .267.119.267.266v1.6c0 .147-.12.267-.267.267ZM7.467 8H6.4v1.067h1.067V8ZM7.733 14.933h-1.6a.267.267 0 0 1-.266-.266v-1.6c0-.148.12-.267.266-.267h1.6c.148 0 .267.12.267.267v1.6c0 .147-.12.266-.267.266Zm-.266-1.6H6.4V14.4h1.067v-1.067Z" fill="#84829A"/></svg>