<svg width="20" height="20" fill="none" xmlns="http://www.w3.org/2000/svg"><g clip-path="url('#clip0_154_1071')"><path d="M11.508 10.002 1.463 19.673a1.709 1.709 0 0 1-.745-1.426V1.757A1.709 1.709 0 0 1 1.464.33L11.508 10Z" fill="#2196F3"/><path d="m15.022 6.624-3.515 3.378L1.464.33c.038-.03.077-.057.118-.082A1.718 1.718 0 0 1 3.316.222l11.706 6.402Z" fill="#4CAF50"/><path d="M19.28 10.002a1.736 1.736 0 0 1-.908 1.543l-3.35 1.835-3.515-3.378 3.515-3.378 3.35 1.834c.566.307.915.9.909 1.544Z" fill="#F0BB1F"/><path d="M15.022 13.38 3.316 19.782c-.541.3-1.202.29-1.734-.027a1.34 1.34 0 0 1-.118-.082l10.043-9.671 3.515 3.378Z" fill="#F15A2B"/></g><defs><clipPath id="clip0_154_1071"><path fill="#fff" d="M0 0h20v20H0z"/></clipPath></defs></svg>