<svg width="14" height="14" fill="none" xmlns="http://www.w3.org/2000/svg"><path d="M13.5 0a.5.5 0 0 0-.223.053L9.488 1.948 5.204.043C5.197.04 5.189.04 5.18.037a.5.5 0 0 0-.12-.03.744.744 0 0 0-.121 0 .519.519 0 0 0-.12.03c-.007.003-.015.003-.022.006l-4.5 2A.5.5 0 0 0 0 2.5v11a.5.5 0 0 0 .703.457L5 12.047l4.297 1.91c.007.003.015 0 .023.004.12.055.26.052.378-.008.008-.003.017 0 .025-.005l4-2a.5.5 0 0 0 .277-.448V.5a.5.5 0 0 0-.5-.5Zm-9 11.175L1 12.73V2.825L4.5 1.27v9.905ZM9 12.73l-3.5-1.555V1.27L9 2.825v9.905Zm4-1.539-3 1.5V2.809l3-1.5v9.882Z" fill="#84829A"/></svg>