<svg width="20" height="20" fill="none" xmlns="http://www.w3.org/2000/svg"><path d="M18.364 2.455A5.479 5.479 0 0 0 14.362.708a5.485 5.485 0 0 0-4.007 1.746L10 2.827l-.353-.373a5.469 5.469 0 0 0-8.012 0 6.134 6.134 0 0 0 0 8.34l7.847 8.275a.715.715 0 0 0 1.037 0l7.845-8.275a6.133 6.133 0 0 0 0-8.34ZM17.33 9.81l-7.328 7.729-7.33-7.73a4.687 4.687 0 0 1 0-6.372 4.04 4.04 0 0 1 5.94 0l.87.92a.736.736 0 0 0 1.038 0l.872-.919a4.04 4.04 0 0 1 5.938 0c1.68 1.8 1.693 4.583 0 6.372Z" fill="#4152CA"/></svg>