<svg width="16" height="16" fill="#080809" xmlns="http://www.w3.org/2000/svg"><path d="M13.656 0H2.344A2.347 2.347 0 0 0 0 2.344v11.312A2.346 2.346 0 0 0 2.344 16h11.312A2.346 2.346 0 0 0 16 13.656V2.344A2.346 2.346 0 0 0 13.656 0Zm1.406 13.656c0 .776-.63 1.406-1.406 1.406H2.344c-.776 0-1.406-.63-1.406-1.406V2.344c0-.776.63-1.406 1.406-1.406h11.312c.776 0 1.406.63 1.406 1.406v11.312Z"/><path d="M13.156 1.906a.939.939 0 0 0 0 1.875.939.939 0 0 0 0-1.875ZM8 3.781A4.223 4.223 0 0 0 3.781 8 4.224 4.224 0 0 0 8 12.219 4.224 4.224 0 0 0 12.219 8 4.224 4.224 0 0 0 8 3.781Zm0 7.5A3.285 3.285 0 0 1 4.719 8 3.285 3.285 0 0 1 8 4.719 3.285 3.285 0 0 1 11.281 8 3.285 3.285 0 0 1 8 11.281Z"/></svg>