<svg width="46" height="44" fill="none" xmlns="http://www.w3.org/2000/svg"><path d="M37.61 12.99a3.305 3.305 0 0 1-.242 3.721L18.894 40.818a3.34 3.34 0 0 1-3.3 1.255 3.339 3.339 0 0 1-2.597-2.389l-2.733-9.728-.285-1.012-.734-.753-7.059-7.232a3.339 3.339 0 0 1-.77-3.444 3.342 3.342 0 0 1 2.737-2.23l30.114-3.945a3.305 3.305 0 0 1 3.343 1.65Z" fill="#fff"/><path d="m10.264 29.955 10.586-6.112c.488-.281.654-.904.373-1.391L9.98 28.943l.285 1.012Z" fill="url('#paint0_linear_115_6')"/><defs><linearGradient id="paint0_linear_115_6" x1="17.903" y1="24.402" x2="18.507" y2="25.526" gradientUnits="userSpaceOnUse"><stop stop-color="#747DEF"/><stop offset="1" stop-color="#5E3BE1"/></linearGradient></defs></svg>