<svg width="67" height="70" fill="none" xmlns="http://www.w3.org/2000/svg"><path d="m23.527 50.657-1.888-.903-11.217 16.584H22.94l1.206-.786V51.225l-.619-.568Z" fill="#407093"/><path d="m21.81 49.835-4.246-2.032h-.8L4.761 65.552l.714.786h5.173L21.81 49.835Z" fill="#365E7D"/><path d="M26.4 65.552H9.848c-.752 0-1.362.609-1.362 1.361v1.725c0 .752.61 1.362 1.361 1.362H26.4c.752 0 1.362-.61 1.362-1.362v-1.725c0-.752-.61-1.361-1.362-1.361Z" fill="#4A80AA"/><path d="M8.768 68.638v-1.725c0-.752.61-1.361 1.361-1.361H1.362C.61 65.552 0 66.16 0 66.913v1.725C0 69.39.61 70 1.362 70h8.767c-.752 0-1.361-.61-1.361-1.362Z" fill="#407093"/><path d="M21.24 39.983a7.992 7.992 0 0 0 4.338 10.94 7.798 7.798 0 0 0 3.34-2.093v-1.74l-7.678-7.107Z" fill="#4A80AA"/><path d="M20.577 43.486c0-1.218.281-2.369.78-3.395l-2.454-2.272h-.996a7.791 7.791 0 0 0 7.9 13.026 7.793 7.793 0 0 1-5.23-7.359Z" fill="#407093"/><path d="M65.812.925a3.157 3.157 0 0 0-4.465 0l-3.013 3.013v.381l3.76 3.92.705.163 3.013-3.013a3.157 3.157 0 0 0 0-4.464Z" fill="#FFD086"/><path d="M66.645 2.415a3.138 3.138 0 0 0-.833-1.49 3.157 3.157 0 0 0-4.465 0l-3.013 3.013v.381l1.994 2.079a276.508 276.508 0 0 1 2.976-3.065c1.012-1.011 2.49-1.019 3.34-.918Z" fill="#FFC365"/><path d="M55.498 8.95c-.035 0-.07-.002-.105-.005L20.576 5.518a1.056 1.056 0 1 1 .207-2.103L55.6 6.842a1.056 1.056 0 0 1-.102 2.108Z" fill="#365E7D"/><path d="M30.646 15.468a1.057 1.057 0 0 1-.267-2.078l24.85-6.518a1.056 1.056 0 0 1 .536 2.043l-24.85 6.518c-.09.024-.18.035-.27.035Z" fill="#407093"/><path d="M62.246 47.136c-.537 0-.996-.408-1.05-.954l-3.405-34.838a1.057 1.057 0 0 1 2.102-.205L63.3 45.977a1.057 1.057 0 0 1-1.053 1.159Z" fill="#365E7D"/><path d="M52.225 37.248a1.056 1.056 0 0 1-1.022-1.327l6.615-24.947a1.056 1.056 0 0 1 2.042.541l-6.614 24.947a1.057 1.057 0 0 1-1.02.785Z" fill="#407093"/><path d="m55.307 6.964 3.02-3.02 4.464 4.464-3.02 3.02-4.464-4.464Z" fill="#FFC365"/><path d="M57.6 9.246c.727-.76 1.86-1.946 2.957-3.086l-2.222-2.223-3.021 3.021L57.6 9.246Z" fill="#FFA90F"/><path d="M60.45 13.152c-.27 0-.54-.103-.746-.31l-5.81-5.809a1.056 1.056 0 0 1 1.494-1.494l5.81 5.81a1.056 1.056 0 0 1-.747 1.803Z" fill="#4A80AA"/><path d="M61.133 49.038 25.762 13.36c-4.69 10.587-5.504 21.951-1.993 31.752 9.695 8.745 24.179 10.088 37.512 4.59l-.148-.664Z" fill="#B5DCFF"/><path d="m25.95 13.55-8.104-8.174-.812.08c-5.71 13.847-4.042 28.936 5.634 38.612a29.438 29.438 0 0 0 1.817 1.67c-4.079-9.788-3.416-21.43 1.465-32.188Z" fill="#8BCAFF"/><path d="M64.365 46.502 28.491 10.628a1.73 1.73 0 0 0-.964.487l-1.56 1.56a1.732 1.732 0 0 0-.507 1.212l35.76 35.76a1.361 1.361 0 0 0 1.925 0l1.22-1.22a1.362 1.362 0 0 0 0-1.925Z" fill="#DBEDFF"/><path d="m26.02 12.702 1.528-1.528a1.696 1.696 0 0 1 1.004-.486l-8.317-8.316a1.362 1.362 0 0 0-1.925 0l-1.22 1.22a1.361 1.361 0 0 0 0 1.925l8.433 8.434c-.011-.451.153-.905.497-1.249Z" fill="#B5DCFF"/></svg>