<svg width="480" height="361" fill="none" xmlns="http://www.w3.org/2000/svg"><g opacity=".1"><mask id="mask0_1_470" style="mask-type:alpha" maskUnits="userSpaceOnUse" x="0" y="0" width="480" height="361"><path transform="rotate(90 479.5 .5)" fill="url('#paint0_linear_1_470')" stroke="#6246E5" d="M479.5.5h360v479h-360z"/></mask><g mask="url('#mask0_1_470')" stroke="#6246E5"><path d="M236.505 453.92c-69.333 0-125.539-56.285-125.539-125.718s56.206-125.718 125.539-125.718 125.54 56.285 125.54 125.718-56.207 125.718-125.54 125.718Z"/><path d="M249.773 458.902c-77.576 0-140.466-62.977-140.466-140.665 0-77.687 62.89-140.664 140.466-140.664 77.576 0 140.465 62.977 140.465 140.664 0 77.688-62.889 140.665-140.465 140.665Z"/><path d="M260.552 463.885c-84.903 0-153.732-68.926-153.732-153.951 0-85.025 68.829-153.951 153.732-153.951 84.904 0 153.733 68.926 153.733 153.951 0 85.025-68.829 153.951-153.733 153.951Z"/><path d="M276.308 467.206c-91.315 0-165.342-74.13-165.342-165.576s74.027-165.576 165.342-165.576c91.314 0 165.341 74.13 165.341 165.576s-74.027 165.576-165.341 165.576Z"/><path d="M291.648 470.528c-97.498 0-176.536-79.15-176.536-176.786 0-97.637 79.038-176.787 176.536-176.787 97.497 0 176.535 79.15 176.535 176.787s-79.038 176.786-176.535 176.786Z"/><path d="M309.061 474.68c-107.114 0-193.949-86.957-193.949-194.224 0-107.268 86.835-194.225 193.949-194.225 107.114 0 193.949 86.957 193.949 194.225 0 107.267-86.835 194.224-193.949 194.224Z"/></g></g><defs><linearGradient id="paint0_linear_1_470" x1="736.035" y1="13.467" x2="487.704" y2="484.066" gradientUnits="userSpaceOnUse"><stop stop-color="#747DEF"/><stop offset="1" stop-color="#5E3BE1"/></linearGradient></defs></svg>