<svg width="160" height="168" fill="none" xmlns="http://www.w3.org/2000/svg"><g filter="url('#filter0_d_1_441')"><path d="M11.197 152.61h4.362v1.88h-4.362v4.942H9.2v-4.942H4.838v-1.88h4.361v-4.565h1.998v4.565ZM46.197 117.61h4.362v1.88h-4.362v4.942H44.2v-4.942h-4.361v-1.88h4.361v-4.565h1.998v4.565ZM81.197 12.61h4.362v1.88h-4.362v4.942H79.2V14.49h-4.361v-1.88h4.361V8.045h1.998v4.565ZM81.197 47.61h4.362v1.88h-4.362v4.942H79.2V49.49h-4.361v-1.88h4.361v-4.565h1.998v4.565Z" fill="#E5E5E5"/><path d="M81.197 82.61h4.362v1.88h-4.362v4.942H79.2V84.49h-4.361v-1.88h4.361v-4.565h1.998v4.565Z" fill="#6246E5"/><path d="M81.197 117.61h4.362v1.88h-4.362v4.942H79.2v-4.942h-4.361v-1.88h4.361v-4.565h1.998v4.565ZM81.197 152.61h4.362v1.88h-4.362v4.942H79.2v-4.942h-4.361v-1.88h4.361v-4.565h1.998v4.565ZM120.559 12.61v1.87h-10.721v-1.87h10.721Zm-4.362-4.565v11.387h-1.987V8.045h1.987ZM116.197 47.61h4.362v1.88h-4.362v4.942h-1.998V49.49h-4.361v-1.88h4.361v-4.565h1.998v4.565ZM116.197 82.61h4.362v1.88h-4.362v4.942h-1.998V84.49h-4.361v-1.88h4.361v-4.565h1.998v4.565ZM116.197 117.61h4.362v1.88h-4.362v4.942h-1.998v-4.942h-4.361v-1.88h4.361v-4.565h1.998v4.565ZM116.197 152.61h4.362v1.88h-4.362v4.942h-1.998v-4.942h-4.361v-1.88h4.361v-4.565h1.998v4.565Z" fill="#E5E5E5"/><path d="M151.197 12.61h4.362v1.88h-4.362v4.942h-1.998V14.49h-4.361v-1.88h4.361V8.045h1.998v4.565Z" fill="#FF7152"/><path d="M151.197 47.61h4.362v1.88h-4.362v4.942h-1.998V49.49h-4.361v-1.88h4.361v-4.565h1.998v4.565ZM151.197 82.61h4.362v1.88h-4.362v4.942h-1.998V84.49h-4.361v-1.88h4.361v-4.565h1.998v4.565ZM151.197 117.61h4.362v1.88h-4.362v4.942h-1.998v-4.942h-4.361v-1.88h4.361v-4.565h1.998v4.565ZM151.197 152.61h4.362v1.88h-4.362v4.942h-1.998v-4.942h-4.361v-1.88h4.361v-4.565h1.998v4.565Z" fill="#E5E5E5"/></g><defs><filter id="filter0_d_1_441" x=".838" y="8.045" width="158.721" height="159.387" filterUnits="userSpaceOnUse" color-interpolation-filters="sRGB"><feFlood flood-opacity="0" result="BackgroundImageFix"/><feColorMatrix in="SourceAlpha" values="0 0 0 0 0 0 0 0 0 0 0 0 0 0 0 0 0 0 127 0" result="hardAlpha"/><feOffset dy="4"/><feGaussianBlur stdDeviation="2"/><feComposite in2="hardAlpha" operator="out"/><feColorMatrix values="0 0 0 0 0 0 0 0 0 0 0 0 0 0 0 0 0 0 0.25 0"/><feBlend in2="BackgroundImageFix" result="effect1_dropShadow_1_441"/><feBlend in="SourceGraphic" in2="effect1_dropShadow_1_441" result="shape"/></filter></defs></svg>