<svg width="264" height="352" fill="none" xmlns="http://www.w3.org/2000/svg"><g opacity=".1"><mask id="mask0_162_2090" style="mask-type:alpha" maskUnits="userSpaceOnUse" x="0" y="0" width="264" height="352"><path d="M.5.5H240c12.979 0 23.5 10.521 23.5 23.5v327.021H50c-27.338 0-49.5-22.161-49.5-49.5V.5Z" fill="url('#paint0_linear_162_2090')" stroke="#6246E5"/></mask><g mask="url('#mask0_162_2090')" stroke="#6246E5"><path d="M330.818 178.32c0 50.702-41.102 91.804-91.803 91.804-50.702 0-91.804-41.102-91.804-91.804 0-50.702 41.102-91.803 91.804-91.803 50.701 0 91.803 41.101 91.803 91.803Z"/><circle cx="231.728" cy="168.604" r="102.734"/><circle cx="225.655" cy="160.709" r="112.45"/><circle cx="219.583" cy="149.171" r="120.952"/><circle cx="213.814" cy="137.937" r="129.15"/><circle cx="204.098" cy="125.185" r="141.902"/></g></g><defs><linearGradient id="paint0_linear_162_2090" x1="187.239" y1="9.862" x2="5.232" y2="354.286" gradientUnits="userSpaceOnUse"><stop stop-color="#747DEF"/><stop offset="1" stop-color="#5E3BE1"/></linearGradient></defs></svg>