<svg width="55" height="56" viewBox="0 0 55 56" fill="none" xmlns="http://www.w3.org/2000/svg">
<g filter="url('#filter0_d_147_748')">
<rect x="4" width="47" height="48" rx="13" fill="#006380"></rect>
</g>
<path d="M20.5 26.125C20.2033 26.125 19.9133 26.213 19.6666 26.3778C19.42 26.5426 19.2277 26.7769 19.1142 27.051C19.0006 27.3251 18.9709 27.6267 19.0288 27.9176C19.0867 28.2086 19.2296 28.4759 19.4393 28.6857C19.6491 28.8954 19.9164 29.0383 20.2074 29.0962C20.4983 29.1541 20.7999 29.1244 21.074 29.0108C21.3481 28.8973 21.5824 28.705 21.7472 28.4584C21.912 28.2117 22 27.9217 22 27.625C22 27.2272 21.842 26.8456 21.5607 26.5643C21.2794 26.283 20.8978 26.125 20.5 26.125ZM20.5 28.375C20.3517 28.375 20.2067 28.331 20.0833 28.2486C19.96 28.1662 19.8639 28.0491 19.8071 27.912C19.7503 27.775 19.7355 27.6242 19.7644 27.4787C19.7934 27.3332 19.8648 27.1996 19.9697 27.0947C20.0746 26.9898 20.2082 26.9184 20.3537 26.8894C20.4992 26.8605 20.65 26.8753 20.787 26.9321C20.9241 26.9889 21.0412 27.085 21.1236 27.2083C21.206 27.3317 21.25 27.4767 21.25 27.625C21.25 27.8239 21.171 28.0147 21.0303 28.1553C20.8897 28.296 20.6989 28.375 20.5 28.375Z" fill="white"></path>
<path d="M35.5 26.125C35.2033 26.125 34.9133 26.213 34.6666 26.3778C34.42 26.5426 34.2277 26.7769 34.1142 27.051C34.0006 27.3251 33.9709 27.6267 34.0288 27.9176C34.0867 28.2086 34.2296 28.4759 34.4393 28.6857C34.6491 28.8954 34.9164 29.0383 35.2074 29.0962C35.4983 29.1541 35.7999 29.1244 36.074 29.0108C36.3481 28.8973 36.5824 28.705 36.7472 28.4584C36.912 28.2117 37 27.9217 37 27.625C37 27.2272 36.842 26.8456 36.5607 26.5643C36.2793 26.283 35.8978 26.125 35.5 26.125ZM35.5 28.375C35.3517 28.375 35.2067 28.331 35.0833 28.2486C34.96 28.1662 34.8639 28.0491 34.8071 27.912C34.7503 27.775 34.7355 27.6242 34.7644 27.4787C34.7933 27.3332 34.8648 27.1996 34.9697 27.0947C35.0746 26.9898 35.2082 26.9184 35.3537 26.8894C35.4992 26.8605 35.65 26.8753 35.787 26.9321C35.9241 26.9889 36.0412 27.085 36.1236 27.2083C36.206 27.3317 36.25 27.4767 36.25 27.625C36.25 27.8239 36.171 28.0147 36.0303 28.1553C35.8897 28.296 35.6989 28.375 35.5 28.375Z" fill="white"></path>
<path d="M24.625 28H31.375V28.75H24.625V28Z" fill="white"></path>
<path d="M24.625 26.5H31.375V27.25H24.625V26.5Z" fill="white"></path>
<path d="M26.875 20.875H29.125V21.625H26.875V20.875Z" fill="white"></path>
<path d="M39.25 24.25V23.5C39.2491 23.2019 39.1303 22.9163 38.9195 22.7055C38.7087 22.4947 38.4231 22.3759 38.125 22.375H36.64L35.8638 19.6525L35.6312 18.7263C35.5702 18.483 35.4297 18.2672 35.232 18.113C35.0343 17.9587 34.7907 17.875 34.54 17.875H31.375V16.375C31.3744 16.1763 31.2952 15.9858 31.1547 15.8453C31.0142 15.7048 30.8237 15.6256 30.625 15.625H25.375C25.1763 15.6256 24.9858 15.7048 24.8453 15.8453C24.7048 15.9858 24.6256 16.1763 24.625 16.375V17.875H21.46C21.2093 17.875 20.9657 17.9587 20.768 18.113C20.5703 18.2672 20.4298 18.483 20.3687 18.7263L20.14 19.6487L19.36 22.375H17.875C17.5769 22.3759 17.2913 22.4947 17.0805 22.7055C16.8697 22.9163 16.7509 23.2019 16.75 23.5V24.25C16.7506 24.44 16.7994 24.6267 16.8919 24.7926C16.9844 24.9586 17.1175 25.0983 17.2788 25.1987C16.9398 25.5471 16.75 26.0139 16.75 26.5V31C16.7505 31.1573 16.7842 31.3128 16.8488 31.4562C16.9134 31.5996 17.0075 31.7279 17.125 31.8325V33.25C17.1259 33.5481 17.2447 33.8337 17.4555 34.0445C17.6663 34.2553 17.9519 34.3741 18.25 34.375H21.25C21.5481 34.3741 21.8337 34.2553 22.0445 34.0445C22.2553 33.8337 22.3741 33.5481 22.375 33.25V32.125H33.625V33.25C33.6259 33.5481 33.7447 33.8337 33.9555 34.0445C34.1663 34.2553 34.4519 34.3741 34.75 34.375H37.75C38.0481 34.3741 38.3337 34.2553 38.5445 34.0445C38.7553 33.8337 38.8741 33.5481 38.875 33.25V31.8325C38.9925 31.7279 39.0866 31.5996 39.1512 31.4562C39.2158 31.3128 39.2495 31.1573 39.25 31V26.5C39.25 26.0139 39.0602 25.5471 38.7213 25.1987C38.8825 25.0983 39.0156 24.9586 39.1081 24.7926C39.2006 24.6267 39.2494 24.44 39.25 24.25ZM25.375 16.375H30.625V17.875H25.375V16.375ZM21.0963 18.91C21.1163 18.8287 21.1631 18.7565 21.229 18.7048C21.2949 18.6532 21.3763 18.6251 21.46 18.625H34.54C34.6237 18.6251 34.7051 18.6532 34.771 18.7048C34.8369 18.7565 34.8836 18.8287 34.9037 18.91L35.02 19.375H20.98L21.0963 18.91ZM20.7812 20.125H35.2188L36.5012 24.625H25.7162C25.6281 24.1009 25.3571 23.6251 24.9514 23.2819C24.5456 22.9387 24.0314 22.7504 23.5 22.7504C22.9686 22.7504 22.4544 22.9387 22.0486 23.2819C21.6429 23.6251 21.3719 24.1009 21.2838 24.625H19.4987L20.7812 20.125ZM24.9475 24.625H22.0525C22.1344 24.3032 22.3211 24.0179 22.5833 23.8141C22.8454 23.6103 23.168 23.4997 23.5 23.4997C23.832 23.4997 24.1546 23.6103 24.4167 23.8141C24.6789 24.0179 24.8656 24.3032 24.9475 24.625ZM17.5 23.5C17.5 23.4005 17.5395 23.3052 17.6098 23.2348C17.6802 23.1645 17.7755 23.125 17.875 23.125H19.1463L18.7188 24.625H17.875C17.7755 24.625 17.6802 24.5855 17.6098 24.5152C17.5395 24.4448 17.5 24.3495 17.5 24.25V23.5ZM21.625 33.25C21.625 33.3495 21.5855 33.4448 21.5152 33.5152C21.4448 33.5855 21.3495 33.625 21.25 33.625H18.25C18.1505 33.625 18.0552 33.5855 17.9848 33.5152C17.9145 33.4448 17.875 33.3495 17.875 33.25V32.125H21.625V33.25ZM38.125 33.25C38.125 33.3495 38.0855 33.4448 38.0152 33.5152C37.9448 33.5855 37.8495 33.625 37.75 33.625H34.75C34.6505 33.625 34.5552 33.5855 34.4848 33.5152C34.4145 33.4448 34.375 33.3495 34.375 33.25V32.125H38.125V33.25ZM38.5 31C38.5 31.0995 38.4605 31.1948 38.3902 31.2652C38.3198 31.3355 38.2245 31.375 38.125 31.375H17.875C17.7755 31.375 17.6802 31.3355 17.6098 31.2652C17.5395 31.1948 17.5 31.0995 17.5 31V30.625H38.5V31ZM38.5 29.875H17.5V26.5C17.5009 26.2019 17.6197 25.9163 17.8305 25.7055C18.0413 25.4947 18.3269 25.3759 18.625 25.375H37.375C37.6731 25.3759 37.9587 25.4947 38.1695 25.7055C38.3803 25.9163 38.4991 26.2019 38.5 26.5V29.875ZM38.5 24.25C38.5 24.3495 38.4605 24.4448 38.3902 24.5152C38.3198 24.5855 38.2245 24.625 38.125 24.625H37.2812L36.8538 23.125H38.125C38.2245 23.125 38.3198 23.1645 38.3902 23.2348C38.4605 23.3052 38.5 23.4005 38.5 23.5V24.25Z" fill="white"></path>
<defs>
<filter id="filter0_d_147_748" x="0" y="0" width="55" height="56" filterUnits="userSpaceOnUse" color-interpolation-filters="sRGB">
<feFlood flood-opacity="0" result="BackgroundImageFix"></feFlood>
<feColorMatrix in="SourceAlpha" type="matrix" values="0 0 0 0 0 0 0 0 0 0 0 0 0 0 0 0 0 0 127 0" result="hardAlpha"></feColorMatrix>
<feOffset dy="4"></feOffset>
<feGaussianBlur stdDeviation="2"></feGaussianBlur>
<feComposite in2="hardAlpha" operator="out"></feComposite>
<feColorMatrix type="matrix" values="0 0 0 0 0 0 0 0 0 0 0 0 0 0 0 0 0 0 0.25 0"></feColorMatrix>
<feBlend mode="normal" in2="BackgroundImageFix" result="effect1_dropShadow_147_748"></feBlend>
<feBlend mode="normal" in="SourceGraphic" in2="effect1_dropShadow_147_748" result="shape"></feBlend>
</filter>
</defs>
</svg>
