<svg width="385" height="12" fill="none" xmlns="http://www.w3.org/2000/svg"><mask id="mask0_111_100" style="mask-type:alpha" maskUnits="userSpaceOnUse" x="0" y="0" width="385" height="12"><path fill="#C4C4C4" d="M0 0h385v12H0z"/></mask><g mask="url('#mask0_111_100')"><path d="m57.828-2.538.941-.158-1.831-.227.878-.166c.88.002 2.02.25 2.64.118.077-.128-.882-.169-1.126-.27a3.178 3.178 0 0 1-.528-.311c.48.001 1.006.026 1.55.072.73.077 1.447.114 2.071.108 1.276.02 2.508 0 3.894.004l-.461-.308 1.787.072c.19.024.415-.014.602.015 1.548.246 2.204.112 2.947 0 .153-.028.336-.05.546-.063 2.066.059 3.93.403 5.79.58.35.045.686.103.984.17.647.13 1.367.235 2.094.307.727.072 1.437.109 2.066.106a44.287 44.287 0 0 1 4.563.249c.476.055.952.09 1.398.106.447.015.853.009 1.193-.018l1.082.176c.47-.072 1.064-.11 1.748-.115a26.26 26.26 0 0 1 2.233.088c.84.068 1.694.114 2.566.187 1.802.138 3.555.222 5.206.25 2.458.084 4.86.148 7.34.252 1.551.05 3.063.078 4.526.083a76.63 76.63 0 0 1 5.594.281c-.092.156-.946.11-1.519.104-1.849-.025-3.74-.093-5.642-.143-.857-.02-1.69-.027-2.495-.022a90.702 90.702 0 0 1-4.23-.124c-2.317-.083-4.56-.124-6.706-.12a6.143 6.143 0 0 0-.46.033c-.029.013-.035.03-.017.049a.313.313 0 0 0 .12.058c.059.02.136.038.223.053.086.015.18.026.271.033.852.106 1.768.219 2.572.235a1.173 1.173 0 0 1 .189.023c1.8.223 3.279.186 4.681.222 2.327.098 4.571.144 6.696.136.322 0 .669.014 1.029.038 2.226.1 4.308.11 6.148.033.757-.02 1.461-.064 2.274-.065a9.33 9.33 0 0 0 1.283-.082c.345-.052.592-.126.726-.218.343.048.692.091 1.041.129.209.021.41.027.561.016.151-.012.242-.039.255-.077.062-.105-.415-.158-.828-.204.249-.022.53-.036.836-.04a99.643 99.643 0 0 1 5.508.086c1.501.096 2.7.018 4.28.154.189.023.345-.011.52-.02a12.653 12.653 0 0 1 1.65-.028c.628.025 1.301.083 1.959.17.819-.238 2.589.035 3.896.06.403.12-.059.1-.079.133-.02.033 0 0-.158-.02-1.305.172-3.093.21-5.113.108-.373 0-.729.008-1.064.023-.507.021-1.079.02-1.691-.006a19.058 19.058 0 0 0-1.811.026c-.305 0-.563.018-.75.053-.187.035-.296.087-.319.15.204.047.429.091.668.13 1.248.15 2.492.213 3.488.175 1.734-.066 3.797-.002 5.64-.024 1.246-.01 2.572.017 3.953.077l-.04.067c.164.027.335.048.505.063l.017-.028a1.933 1.933 0 0 0-.296-.073l-.41-.05c.278-.014.539-.053.83-.029.612.045 1.198.064 1.721.055a9.002 9.002 0 0 0 1.323-.102 17.57 17.57 0 0 1 2.263-.102 60.592 60.592 0 0 0 1.929-.054s.04-.066.332-.102c-.277-.044-.565-.08-.852-.105-1.25-.066-2.502-.125-3.729-.17-.453-.004-.878.003-1.267.023-1.08.022-2.294-.01-3.57-.096l-.379-.047c.359-.147 1.593 0 2.092-.1.304.003.839.015.821-.011-.042-.035-.047-.067-.015-.095a.438.438 0 0 1 .2-.065c.1-.015.228-.023.376-.022.149 0 .313.009.481.024 1.405.086 2.729.11 3.89.07.44 0 .933.026 1.37.032.267.008.511.004.719-.012 1.055-.117 2.475-.125 4.047-.024.759.036 1.469.04 2.092.014.444-.005.632.078.948.117l1.34.083-1.722.103c.368.237.661.315 1.262.33a91.35 91.35 0 0 0 2.558.03c.611-.002 1.116-.053 1.943.037.146.015.287.02.399.014.969-.08 2.135-.1 3.42-.054.666-.15 1.799-.005 2.847.113.339-.113-.274-.165-.64-.234.877.007 1.76.003 2.666.02.272-.007.583.004.909.03.325.025.657.066.968.118.151.034.334.06.51.071.176.012.332.01.435-.007.47-.05 1.222-.004 1.61-.088.138-.019.336-.022.557-.007.221.014.452.044.651.085a5.697 5.697 0 0 0-.577.06c-.595.088-.376.234.378.447 1.16-.012 2.344-.008 3.418-.048a16.5 16.5 0 0 1 2.119.032 22.58 22.58 0 0 1 2.331.292c.267.051.572.087.853.1.281.012.519.001.665-.032.092-.037.12-.085.083-.139l-.758-.093.037-.062 1.089-.008c.576 0 1.177.014 1.722.01.8-.028 1.714-.012 2.684.046.895.06 1.775.105 2.631.135.829.03 1.43-.068 2.218-.084.597-.012 1.253 0 1.944.038 1.193.065 2.288.065 3.185 0 1.046.35 1.554.408 2.525.313l.457-.027.125.075.348-.017c.653-.014 1.306-.029 1.987-.034.946.032 1.969.12 2.967.254.189.023.447.103.613.165.167.063.529.251.796.374-.291.09-.612.175-.843.277-.023.018-.021.039.007.062a.483.483 0 0 0 .151.069c.072.023.163.044.264.062.101.019.211.033.32.043.212.02.421.034.619.04.976.011 1.91.003 2.794-.024a7.31 7.31 0 0 1 1.255-.01c.491.032 1.002.096 1.454.185 1.156-.053 2.5-.038 3.938.045 1.521-.05 3.358.052 4.779-.059-.033.056.114.152.318.207.323.084.69.161 1.084.23l3.005.133c.112.069.252.138.419.207.114.055.313.109.554.15.242.04.507.066.739.07.598.02 1.099-.025 1.812.087-1.098.106-2.579.092-4.178-.04-1.503-.1-2.949-.15-4.284-.148-.44 0-1.02.005-1.157.066-.305.171-1.102.144-2.032.112a16.226 16.226 0 0 0-1.948.012c-.549.042-.964.12-1.212.23-.062.106.088.196.729.258l2.666.246c.393-.032.766-.07 1.118-.112a16.944 16.944 0 0 1 2.135-.046c.812.027 1.685.096 2.55.202.442.055.884.11 1.204.083.282-.03.541-.065.775-.107.048-.027.067-.06.057-.094.17.016.34.037.505.062 1.316.295 2.336.29 3.262.213.251-.022.442-.058.696-.087.254-.028.343-.065.574-.054 1.84.097 2.37-.226 3.922-.213.075-.013.122-.031.136-.055.014-.023-.006-.05-.057-.078a4.065 4.065 0 0 0-.758-.094c-.714-.042-1.344-.029-1.783.036-.311.026-.641.047-.987.063l-1.553-.467a69.33 69.33 0 0 0 4.237-.001c.285-.025.769.017 1.171.025l2.956.044c.608.004 1.126-.07 1.973.101 0 0 .56.028.709.004.15-.023.812-.168 1.207-.262.458.026 1.093.1 1.378.075.499-.06.931-.137 1.288-.229l1.786.132c-.002.117-.067.227-.195.328-.139.098-.134.215.014.342.148.128.436.261.84.39l1.763.685c.288.046.594.077.879.088.284.012.531.004.709-.023.758-.08 1.608-.141 2.367-.22.979.12.727.317 1.439.488l2.304.286c.352.264.71.518-.359.606-.213.016-.069.117-.263.159.831.198 1.744.258 2.587.38.332.088.61.181.82.275.23.14.698.285 1.301.401.603.116 1.294.195 1.923.219a49.81 49.81 0 0 1 3.194.33c.361.05.732.086 1.088.107.356.02.689.024.976.011 1.023-.022 1.889-.1 2.542-.228.645-.11 1.515-.162 2.53-.153 1.736.215 2.087.54 3.137.825l-1.815.032c-.066.11.055.251-.689.249-.744-.003-.367.104-.126.211.085.054.251.11.47.157.219.048.477.085.73.105l1.546.138a13.38 13.38 0 0 0 1.532.064c.454-.01.815-.052 1.043-.122.262-.066.623-.11 1.061-.13.558-.055 1.017-.135 1.36-.238l2.182.15c.092-.104.392-.177.848-.206.456-.03 1.04-.014 1.653.044l1.471.093c1.634.1 1.993.068 2.471-.226l-1.96-.523c.285-.138.56-.26.835-.38-.488-.173-1.139-.336-1.888-.473a95.295 95.295 0 0 0-2.153-.428c-.797-.14-1.64-.263-2.63-.421-.173-.052-.424-.142-.745-.23a36.221 36.221 0 0 0-1.004-.25c.066-.11.125-.211-.002-.34.61.041 1.24.113 1.834.21.594.096 1.132.214 1.566.342.073.023.163.044.263.063.1.019.208.034.317.045 1.072.079 1.584.244 2.108.446.353.103.808.195 1.301.263.948.117 1.875.268 2.781.398.277.043.565.079.852.105a41.01 41.01 0 0 1 2.81.348c.297.037.582.086.831.143.25.057.456.12.602.184-.226.07-.347.159-.358.26-.04.067.625.203.94.302.314.099-.302.052-.512.062-.858.02-1.017.06-.503.278.171.069.286.138.335.202.049.065.032.124-.05.174-.122.206-.493.375-.748.576.396.133 1.058.274 1.13.439a.589.589 0 0 0 .214.113c.107.037.243.074.401.106.416.07.794.153 1.104.243.311.09.547.185.689.278.046.038.158.079.314.113a3.654 3.654 0 0 0 1.066.068c.131-.019.189-.054.163-.098a.403.403 0 0 0-.086-.255c.036-.061.073-.123-.071-.224.647.037 1.327.111 1.965.214.637.104 1.209.232 1.653.372.491.144.943.295 1.487.464-.112.19-.112.19 1.045.524l6.139.163 1.258.222c1.173.193 1.452.18 2.189.08l.496-.094c1.042.129 2.242.277 2.893.036.212.157.35.21.302.234-.311.233-.852.43-1.6.584-.191.036-.325.091-.548.123-.717.182-.883.463-.465.785.208.143.51.289.896.433-.565.201-1.314.368-2.225.495-.774.099-1.411.23-1.893.393-.433.163-1.082.285-1.909.36-.419.033-.725.096-.887.183-.048.238.062.492.33.758.051.08.194.168.419.255.224.087.525.17.877.246 0 0 .17.057.251.09.068.288-.186.542-.746.744-.091.058-.279.1-.542.12-.263.021-.592.021-.952 0-.759-.034-1.468-.039-2.202-.058-.791-.027-1.488-.006-2.017.062-.529.068-.872.18-.991.324a.213.213 0 0 1-.069.117c-.022.019-.034.04-.036.061l1.686.472-1.907.187c-.113.19.803.303 1.262.443l-.284.079c-.365.044-.857-.04-1.302-.09l-.442-.055-.053.09c-.275.12-1.279-.016-1.67.073-.392.089-.112.19.474.286.408.072.846.129 1.281.167.435.039.856.057 1.231.054.224-.01.41-.03.546-.063a38.154 38.154 0 0 1 2.618-.357c.729-.089 1.642-.127 2.675-.11.303-.007.668.014 1.032.059s.702.111.957.187l.534.012s.293.078.252.091c-.204.231.033.514.674.806l-.558.027c-.797-.027-.291.149-.411.235-.566-.016-1.302-.09-1.571.02l-.401-.007.157.02.191-.037.75.165c-.355.027-.613.061-.926.076a1.774 1.774 0 0 0-.406.067c-.094.032-.143.071-.143.116 0 .069-.093.127-.272.169a3.72 3.72 0 0 1-.75.069c-.374.001-.588.076-.807.103l.952.452s-.474-.059-.216.021l.033-.055.577.113c.415.1.706.123.952.052.245-.071.189.023.307-.004-.043.073-.31.123-.539.166-.265.034-.564.06-.892.075.591.318.62.328-.244.412-.863.084-.565.21-1.287.229-.723.018.099.233.582.275.359.027.724.07 1.071.126.348.055.669.122.942.195l-.145.244c-.213-.02-.426-.046-.632-.078-.7-.134-1.336-.26-1.959-.183l.297.186-2.173-.108c.056.14.387.299.924.443a.495.495 0 0 0-.149.25c-.036.062-.25.023-.39.03-.497.01-.906.052-1.189.12-.283.07-.433.164-.435.276-.056.095.709.29 1.187.284 1.194.02 2.485.092 3.804.215.804.016.917-.233 2.24-.063.026.115-.143.208-.483.265-.339.057-.83.075-1.399.051.323.255 2.114.322 2.193.588a14.326 14.326 0 0 1-1.383-.128 10.76 10.76 0 0 1-1.242-.245 2.298 2.298 0 0 0-.279-.062 3.523 3.523 0 0 0-.331-.039 2.607 2.607 0 0 0-.3-.005.743.743 0 0 0-.197.029c.248.096.521.208.832.312.311.104.386.15.61.171 1.673.207 2.469.58 3.916.826.379.047.426.196.097.179a5.761 5.761 0 0 0-.818.006c-.222.021-.373.06-.438.113-.243.061-.545.11-.9.145 1.485.383 3.255.722 5.144.984.358.052.731.083 1.065.09 1.055 0 2.174.03 3.335.09.412.017.793.015 1.121-.004 1.078-.046 1.934.054 2.715.336l1.294.447c-.043.072-.26.153-.427.264l1.011.238 7.713-.55 1.548.533 2.221-.03c.17.016.341.037.505.063.449.157.8.308 1.287.458.487.15 1.358.168 1.965.345.606.176 1.214.18 1.965.285.071.137-.002.26-.214.362-.069.117-.451.189-.517.3.007.112-.134.208-.412.278-.279.07-.684.111-1.18.122-1.39.24-3.066.41-4.977.506a2.243 2.243 0 0 0-.409.048c-.102.024-.164.056-.183.094.002.109-.125.203-.373.276-.248.072-.611.121-1.062.143a.822.822 0 0 0-.26.04c-.171.014-.296.04-.362.076s-.071.082-.016.131c.056.05.171.102.335.152.163.05.369.096.598.133.332.061.671.119 1.015.174-.02.034-.362.039-.312.069.135.096.167.186.092.263-.075.076-.254.138-.523.18l1.843.777c1.119.108 2.217.29 3.085.513.001.037-.049.067-.145.09a2.016 2.016 0 0 1-.403.034c-.45.016-.875.047-1.36.064a4.09 4.09 0 0 0-.725.085c-.183.043-.298.1-.338.166l1.082.289c-.347.07-.604.104-.833.148.13.09.353.184.652.274.3.09.667.174 1.074.244.109.014.221.025.328.031.107.006.207.008.295.004.838-.099 1.819.076 2.771.242.953.166 1.47.265 2.173.394l1.345.018c.34.06.644.132.887.21.243.076.418.155.511.232-.072.122-.71.055-1.09.068-.903.076-2.089.06-3.362-.047-.316-.039-.639-.007-.947-.003-.662.015-1.299.04-1.907.074-.401.032-.775.071-1.121.118-.092.156 1.362.276.537.353.284.035.39.084.536.067.936.1 1.858.15 2.66.144 1.538-.022 3.284.05 5.096.207 1.955.163 3.831.232 5.472.2.626-.002 1.324.032 2.043.098.85.092 1.693.15 2.476.169a9.559 9.559 0 0 1 1.696.168c-.023.04-.277.067-.221.086.81.292 1.139.595 2.386.893.852.106 1.831.227 2.388.087.558-.14.358-.26-.751-.619.24-.005.53.012.819.047.288.036.557.089.759.149l.959.268.865.256-.198.334c-.099.112.01.249.311.39.181.078.339.156.472.233.541.307.698.597.453.838-.47.346-1.124.665-1.954.952-.878.28-1.358.632-2.08.937a9.167 9.167 0 0 1-1.339.372c-.99.241-2.075.471-3.069.718-.994.248-2.116.425-3.219.629-1.643.242-3.419.45-5.318.625-1.176.153-2.382.302-3.469.478-1.284.199-2.792.341-4.487.424-1.497.1-2.835.246-3.987.438-.121.02-.217.047-.284.078-.207.196-.789.333-1.656.392.053.058.12.116.202.175.12.07.145.135.072.188-.074.053-.242.09-.484.107-.693.048-1.27.13-1.703.243-.159.028-.258.07-.288.12-.03.05.01.108.117.17.094.062.101.12.019.165-.081.046-.246.076-.475.088a40.27 40.27 0 0 1-1.881.144c-1.417.079-3.065.078-4.844-.003-.19-.024-.38.012-.601-.015-1.259-.09-2.428-.105-3.365-.04-1.099.025-2.249.02-3.408.031a58.838 58.838 0 0 0-4.591.142c-1.568-.098-2.449.073-3.773.077-1.222.017-2.38.06-3.463.126-1.747.088-3.487.165-5.209.269a62.15 62.15 0 0 0-4.436.28c-.511.062-1.437-.034-1.785.096-.348.13-1.051.114-1.618.158l-1.792.106c-.308.026-.647.042-1.011.048-1.665.009-2.819.182-4.365.218l-.158-.02c-2.745.258-5.886.4-9.331.421-2.012.08-4.213.076-6.348.134-.51.116-1.713-.027-2.351.079-.639.106-1.683.036-2.506.054-.824.017-1.629.06-2.509.06-.765 0-1.41.047-1.878.137-1.068.148-2.369.236-3.847.258-1.954.039-3.802.126-5.79.107.028.108-.094.2-.353.267-.26.066-.648.105-1.125.111-2.126.042-4.053.15-6.207.181h-.576l-6.442.063c-1.735.011-3.407.031-5.178.045-.663-.082-.679.06-1.137.032-.128-.07-.28-.1-.505-.062l-.05.083-7.351.11c-2.878.082-5.906.106-9.057.074-.748.008-1.446.035-2.082.082-.591.017-1.206.025-1.844.023-.861-.021-1.703-.032-2.522-.032-2.154.032-4.414.014-6.773-.009-2.358-.023-4.145.018-6.244.015a210.374 210.374 0 0 1-4.308-.05c-.702-.015-1.568-.098-2.296-.129-.727-.03-.964-.03-1.061.018-.316.134-1.112.047-1.748.034-1.241-.022-1.417-.068-1.754-.414l1.522-.11c.373-.036.843-.042 1.363-.018.52.023 1.074.076 1.607.153.21.033.43.059.646.076.217.018.426.027.615.026 1.536-.018 3.051-.058 4.527-.09l.216-.021.013-.309a9.93 9.93 0 0 0-.6-.074l-7.404-.2c-1.699-.05-3.463-.16-5.131-.206a378.363 378.363 0 0 1-3.86-.12 60.168 60.168 0 0 1-1.666-.105.155.155 0 0 0 .056-.094c.03-.05.07-.117-.17-.17a6.104 6.104 0 0 0-.977-.181 14.72 14.72 0 0 0-.99-.045 33.043 33.043 0 0 1-4.78-.455l-.545.177c-2.347-.1-4.729-.197-7.181-.292a17.965 17.965 0 0 1-1.507-.145c-.536-.066-1.03-.205-1.595-.28a39.076 39.076 0 0 0-1.653-.128c.146-.045.339-.082.572-.108.23-.01.397-.038.478-.081.081-.044.071-.1-.029-.162-.174-.105-.251-.204.129-.217.351-.024.603-.076.724-.15.122-.074.109-.166-.037-.267a.568.568 0 0 1-.135-.172l-.158-.02c-.521-.207-1.56-.282-2.307-.452a8.258 8.258 0 0 0-1.036-.08c-.826-.037-1.63-.053-2.484-.1a16.89 16.89 0 0 1-1.254-.113c-.6-.074-.663-.082-1.011-.352.541.005.969-.036 1.214-.114.244-.079.288-.19.126-.317-.446-.276-.918-.568-2.936-.764.658-.01 1.292-.029 1.898-.058a1.14 1.14 0 0 0 .378-.058c.07-.031.075-.073.014-.119a1.147 1.147 0 0 0-.357-.138 4.71 4.71 0 0 0-.598-.107 31.093 31.093 0 0 0-3.21-.302c-.871-.018-1.656-.008-2.672-.008l-1.2-.149c.02-.033-.156-.079-.112-.097.305-.171.641-.339.988-.523a8.872 8.872 0 0 1-1.383-.346c-.35-.127-.558-.255-.598-.37-.03-.036-.022-.068.023-.094a.666.666 0 0 1 .237-.06c.316-.022.559-.065.712-.125.153-.06.211-.135.17-.22l-.933-.312a186.372 186.372 0 0 0-8.224-.475l-2.399-.07c-.289-.084-.199-.12.073-.123.272-.002 1.038.021 1.573.034.462.016.872.005 1.19-.032.319-.036.536-.098.629-.179l-.805-.356c.039-.067.095-.162.532-.155.298-.008.518-.042.624-.096.106-.054.092-.125-.041-.202-.02-.056.01-.107.089-.15.646-.004 1.289-.002 1.875-.02.273-.005.504-.026.676-.06.172-.034.283-.081.323-.138.021-.055-.03-.118-.15-.184a2.555 2.555 0 0 0-.541-.194c-.918-.077-1.759-.078-2.336-.003-.206.059-.537.09-.949.092-.412.001-.886-.029-1.36-.085a10.636 10.636 0 0 0-1.525-.081c-.443.013-.758.067-.889.152-.557-.033-1.05-.058-1.537-.095a12.946 12.946 0 0 0-1.569-.039c-.724.014-1.505.006-2.324-.025a378.79 378.79 0 0 0-7.008-.181c-.605-.01-1.128.016-1.726-.005-.598-.02-1.071.035-1.819-.076a4.728 4.728 0 0 0-.418-.032c-.133-.004-.252 0-.347.009-1.314.087-2.853.1-4.529.036-2.295-.015-4.675-.06-6.974-.07a38.5 38.5 0 0 0-1.904.07c-.452.022-.925.037-1.416.045-.377.007-.738-.014-.674.108.063.121-.502.045-.827.023a102.381 102.381 0 0 1-3.417-.238 40.945 40.945 0 0 0-3.279-.185c-.741-.009-1.505.022-2.457-.144.036-.06.073-.122.28-.186a26.885 26.885 0 0 0-2.585-.441 30.292 30.292 0 0 0-2.719-.216l-1.192-.332c-.294-.04-.593-.068-.88-.084a8.406 8.406 0 0 0-.793-.01 4.327 4.327 0 0 1-.623-.035 3.613 3.613 0 0 1-.577-.114 7.446 7.446 0 0 0-1.642-.203c-.818-.036-1.693-.12-2.533-.242-.218-.072-.354-.146-.393-.213-.038-.068.023-.125.177-.166.249-.072.388-.164.41-.27.022-.106-.073-.225-.281-.347-.106-.076-.142-.147-.105-.21.038-.063.147-.117.323-.158.653-.187.478-.293-.591-.604a5.835 5.835 0 0 0-.615-.143 9.398 9.398 0 0 0-.731-.102 40.349 40.349 0 0 0-1.73-.112c-.315-.04-.639-.008-1.003-.023-1.819-.076-2.085-.198-2.674-.462l-.429-.191a30.105 30.105 0 0 0-2.55-.375 29.504 29.504 0 0 0-2.554-.162 8.282 8.282 0 0 1-1.04-.075 43.46 43.46 0 0 0-3.45-.296c-.694-.027-1.442-.1-2.154-.206a13.637 13.637 0 0 1-1.86-.398 11.695 11.695 0 0 0-1.689-.353c-.757-.093-.827-.204-.404-.289a37.048 37.048 0 0 1 1.76-.283c.22-.03.355-.08.392-.143.038-.063-.025-.137-.18-.213-.1-.132-.117-.256-.052-.371.035-.048.011-.102-.07-.16a1.541 1.541 0 0 0-.404-.176 5.839 5.839 0 0 0-.664-.16 9.892 9.892 0 0 0-.804-.115c-1.168-.145-2.305-.285-3.496-.391-.5-.05-.998-.112-1.484-.184a41.916 41.916 0 0 0-3.13-.435 8.663 8.663 0 0 1-1.385-.237 50.507 50.507 0 0 1-3.279-.872 6.568 6.568 0 0 0-.913-.268 14.103 14.103 0 0 0-1.206-.216c-.347-.043-.63-.137-.898-.2-.194-.146-.215-.281-.06-.393.155-.111.48-.195.946-.244.442-.06.855-.127 1.236-.2.46-.058 1.007-.093 1.62-.103.727-.032 1.265-.121 1.543-.257-1.99-.247-3.88-.6-5.624-.518l-1.325-.223c.053-.09.1-.167.142-.24.315-.131.413-.297.287-.484-.105-.09-.095-.172.027-.238.122-.065.353-.112.669-.135 1.87-.24 4.034-.403 5.788-.675.55-.051 1.194-.074 1.904-.069.688-.016.659-.14-.132-.29-.444-.08-.897-.156-1.356-.229-2.026-.012-2.852.352-5.164.25l-1.072-.478c-.29-.008-.57-.01-.842-.009l-3.877.195c-.322.01-.574.043-.725.096-.151.053-.196.123-.13.204.026.098-.027.188-.158.267-.085.055-.03.128.15.204.408.17-.115.194-.446.237a2.995 2.995 0 0 1-.286-.001 4.426 4.426 0 0 1-.633-.079 2.155 2.155 0 0 1-.249-.065c-.582-.161-1.09-.332-1.663-.51.406-.17-.071-.451.562-.605.071-.031.1-.069.084-.11-.016-.043-.076-.088-.176-.135-.258-.12-.381-.236-.356-.338.024-.101.196-.185.496-.242l.036-.06c-.793-.206-.583-.39-.894-.607l-.763-.142c-1.898-.343-1.901-.337-3.535-.325-.33-.13.089-.15.403-.165l2.628-.146c1.718-.098 3.487-.166 5.406-.203 1.92-.037 4.06-.16 6.044-.248.1-.007.177-.02.224-.04.047-.02.062-.043.045-.07a2.174 2.174 0 0 0-.302-.083 4.453 4.453 0 0 0-.392-.063c-.63-.078-1.279-.129-1.952-.194l-1.254-.114-.386-.149c-.251-.09-.423-.201-.757-.267a8.759 8.759 0 0 0-.865-.107 6.495 6.495 0 0 0-.79-.014c-.629.03-1.196.073-1.796.112-.599.04-.93.082-1.449.101-1.056.009-2.076.032-3.057.07-.826.088-1.59.193-2.287.313-.435.048-.842.105-1.584.043a4.485 4.485 0 0 1-.858-.209c-.202-.079-.288-.157-.244-.22.04-.05.153-.09.328-.115.175-.025.407-.035.673-.03.746-.01 1.435-.04 2.054-.092.862-.094 1.911-.135 3.087-.12.399.014.666-.036 1.014-.053.35-.016.644-.057 1.033-.027 1.208.078 1.787-.042 2.51-.12.246-.034.397-.09.44-.16.041-.07-.028-.154-.202-.24a10.325 10.325 0 0 0-1.22-.515 7.034 7.034 0 0 0-.918-.233c-.359-.07-.752-.126-1.15-.166-.237-.106-.364-.209-.368-.301-.005-.093.114-.17.343-.228.586-.13 1.105-.263 2.418-.19.616.027 1.197.033 1.718.015a36.32 36.32 0 0 1 3.875.152c.359.031.711.053 1.047.064 2.395.075 4.677.113 6.965.14 1.213.013 2.435.009 3.7.046 2.969.081 5.67.04 8.535.066 1.5.013 2.844-.041 3.959-.16.217-.041.403-.088.557-.14-.739-.14-1.55-.25-2.357-.32-.807-.071-1.581-.1-2.25-.084a9.314 9.314 0 0 1-1.371.02 15.878 15.878 0 0 1-1.627-.165l1.553-.046c1.03-.022 2.084-.029 3.085-.06 1.59-.054 3.065-.14 4.712-.175 1.33-.032 2.52-.114 3.533-.243a29.119 29.119 0 0 1 2.49-.2c.656-.02.656-.02 1.076-.212-.333-.125-.763-.143-1.169-.145-2.429-.079-4.74-.093-6.888-.041a24.369 24.369 0 0 0-2.838.156c-.194.042-.69.022-1.09.008a78.975 78.975 0 0 0-3.568.018 66.744 66.744 0 0 1-5.128-.038c-.35-.097.052-.089.072-.122 1.427-.062 2.825-.134 4.279-.187.398-.019.823-.028 1.27-.028 1.672.033 3.064-.058 3.983-.259.046-.078.65-.069.918-.119.132-.044.219-.095.26-.153-.39-.144-.83-.145-1.168-.145a85.97 85.97 0 0 0-2.833.091c-.84.043-1.77.054-2.765.034-.734-.019-1.361.01-2.102.003a27.27 27.27 0 0 1-1.24-.082c.47-.1 1.108-.162 1.87-.18.578-.06 1.3-.079 1.392-.234-.273-.112-.577-.114-.82-.102-.509 0-1 .006-1.47.021-.999.032-2.08.032-3.22.001-.601-.011-1.171-.008-1.7.01-1.201.025-2.352.08-3.451.105-2.252.025-4.306.117-6.47.166-.481.012-.913.054-1.547-.019-.635-.072-.663-.082-.738-.127-.178-.075-.232-.148-.15-.204.125-.051.37-.08.691-.081 1.935-.082 3.77-.198 5.492-.347a16.49 16.49 0 0 0 1.971-.18c.434-.062.95-.102 1.529-.121a87.295 87.295 0 0 1 2.633-.098 6.77 6.77 0 0 0 1.06-.097c.277-.053.462-.125.546-.212l-1.117-.287a26.33 26.33 0 0 0-.521-.035l-9.273.207-.918.006c-1.006-.017-1.252-.06-2.207-.393 2.179-.078 3.891-.307 4.968-.663a17.074 17.074 0 0 0-.79-.097 65.368 65.368 0 0 0-4.874-.067c-.884.004-1.792-.007-2.704-.012.267-.164 1.288-.115 1.954-.152 1.59-.058 2.998-.178 4.175-.355.406-.07.914-.113 1.5-.13.588-.007 1.078-.048 1.43-.123.35-.074.552-.178.585-.303.055-.113.175-.218.356-.314-.32-.136-.83-.266-1.432-.366-.602-.1-1.256-.163-1.839-.177a76.48 76.48 0 0 1-3.837-.272 22.39 22.39 0 0 0-1.869-.106 13.431 13.431 0 0 1-1.663-.13 9.69 9.69 0 0 1-1.468-.305 69.873 69.873 0 0 1-1.496-.449c-.487-.15-1.053-.339-1.621-.523-.502-.029-.99-.047-1.459-.055-.364.007-.79-.013-1.226-.058a11.094 11.094 0 0 1-1.235-.193c.218-.08.463-.152.722-.245-.355-.123-.613-.25-.757-.37-.144-.12-.172-.233-.081-.331.052-.09-.334-.239-.467-.357-.172-.101-.204-.196-.093-.272.112-.076.362-.129.717-.152a5.35 5.35 0 0 0 1.062-.19c.087-.023.131-.052.129-.087-.003-.035-.052-.074-.143-.114a2.167 2.167 0 0 0-.378-.114 5.248 5.248 0 0 0-.523-.086c-.568-.06-1.132-.1-1.66-.116a114 114 0 0 0-2.61-.054c-.92-.012-1.943-.08-2.965-.2-.916-.114-1.737-.216-2.184-.432-.448-.217-1.164-.21-1.714-.368.309-.142.858-.24 1.593-.286.48-.016.881-.059 1.178-.125.296-.066.48-.155.54-.26l-1.67-.44c-1.335-.206-2.073-.047-3.515-.13l1.486-.162c.03-.016.04-.035.033-.056-.145-.328-.374-.399-1.893-.58l-.852-.106-1.35-.126c-.215-.067-.365-.137-.433-.203-.067-.066-.051-.126.047-.173.198-.08.258-.18.175-.295-.131-.075-.142-.145-.03-.197.11-.052.336-.082.638-.086.24-.006.259-.093.39-.143.13-.068.352-.12.653-.153.3-.033.67-.046 1.086-.037a57.656 57.656 0 0 0 3.434-.077l-.19-.023c1.102.05 2.132.057 3.04.018.91-.049 2.077-.017 3.044-.047.787.007 1.386-.06 1.67-.187.275-.122 1.275-.093 2.04-.07.454.015.892.021 1.31.019a13.706 13.706 0 0 1 1.99.073c.218.023.433.035.623.035 1.846.032 3.687.069 5.508.085.42-.01.912.013 1.42.063.213.022.42.03.594.026 2.877-.05 6.122.077 8.942.008.341-.016.72-.02 1.124-.01.908.04 1.697.015 2.246-.074a7.732 7.732 0 0 1 1.116-.076c.44-.003.93.016 1.437.058.845.054 1.626.06 2.26.017 1.237-.04 2.538-.057 3.893-.05.415.008.78-.008 1.066-.045.286-.037.487-.095.585-.168-.333-.125-.696-.14-1.042-.129-1.338-.028-2.674-.062-3.987-.076a72.44 72.44 0 0 0-3.368-.035 11.725 11.725 0 0 1-1.834-.108 15.506 15.506 0 0 0-2.283-.15c-.5.002-1.028-.007-1.576-.029-.35-.026-.71-.07-1.042-.129a5.262 5.262 0 0 0-.845-.093 3.137 3.137 0 0 0-.358.008.86.86 0 0 0-.23.045c-.507.17-1.642.083-2.614.064-1.456-.287-2.54-.117-3.9-.28a3.907 3.907 0 0 0-.312-.019 2.205 2.205 0 0 0-.258.009c-2.633.097-5.703.016-8.468.05a8.924 8.924 0 0 1-1.021-.05c-2.37-.243-4.65-.313-6.391-.194a8.18 8.18 0 0 1-.713.002 32.515 32.515 0 0 0-3.322-.113c-1.554-.007-3.049-.001-4.628-.024-1.089-.032-2.044.002-2.77.099-.023.039-.506-.003-.877-.007-.213-.098-.397-.187-.617-.274-.196-.107-.49-.216-.862-.319a12.771 12.771 0 0 0-1.293-.276c-.82-.102-.903-.25-.328-.303 1.48-.18 3.342-.253 5.448-.216 1.76.004 3.552.01 5.337.029 1.042.015 2.14.05 3.152.056.342.013.694.032 1.05.058.438.037.863.057 1.253.06a50.824 50.824 0 0 1 4.12.08c.54.018 1.059.024 1.548.018a60.316 60.316 0 0 1 3.732.05c.82.032 1.615.049 2.377.05.269.003.488-.023.747-.003 2.281.21 3.896.059 5.95.14a59.87 59.87 0 0 0 2.846 0c1.747 0 3.543.024 5.38.07 2.43.073 4.682.047 7.002.078.458.006.9.005 1.324-.003 2.059-.057 4.295-.045 6.655.036.535.011 1.016-.003 1.413-.042.396-.04.7-.103.89-.187.081-.057.029-.132-.147-.209-.29-.099-.62-.196-.98-.289L55.74.584A59.183 59.183 0 0 0 54.13.557a178.986 178.986 0 0 1-4.735-.073C47.794.441 46.265.45 44.713.436a58.343 58.343 0 0 1-1.405-.03 312.767 312.767 0 0 0-9.452-.234C32.571.168 31.182.11 29.872.091 28.562.072 26.77.065 25.215.058h-4.813c-.946-.003-1.868.008-2.786.014-1.115-.407-1.499-.502-2.986-.68a13.771 13.771 0 0 0-1.492-.113C11.663-.69 9.81-.823 8.41-.805c-.845-.01-1.561.036-2.077.13-.447.075-.959.133-1.527.176-1.556-.348-1.693-.574-.523-.662.317-.02.754-.014.983-.058.132-.026.311-.041.524-.044a7.27 7.27 0 0 1 .705.03c.79.056 1.53.07 2.146.038.58-.042 1.29-.04 2.064.005.568.07 1.068-.03 1.56-.058.49-.028.894-.08 1.662-.003.14.015.28.025.408.027.127.002.24-.002.329-.013a25.34 25.34 0 0 1 2.871.015c1.631.059 3.161.061 4.538.007.823-.048 1.526-.132 2.08-.25a3 3 0 0 1 .65-.07c1.385.025 2.888.118 4.414.273a55.962 55.962 0 0 0 5.022.276c1.516 0 3.096.03 4.724.089a69.64 69.64 0 0 0 2.893.036c.946-.004 1.956.02 3.006.073 1.045.044 1.966.019 2.652-.071.226-.049.408-.106.542-.172-1.53-.213-3.112-.322-4.428-.304-.5-.014-.915 0-1.442-.083l-.017.028a2.134 2.134 0 0 1-.444.012 3.953 3.953 0 0 1-.539-.068l.165-.278c1.003.013 1.977.012 2.916-.003.792-.022 1.867.165 2.553.095 1.337.088 2.189-.034 3.388.002 1.199.035 2.52.15 3.719.185 1.046.02 2.062.024 3.042.013.339-.015.729-.012 1.146.01a12.02 12.02 0 0 0 1.576.02c.443-.028.764-.091.926-.181-.153-.085-.36-.194-.597-.307.438-.093 1.102-.132 1.896-.112l1.12-.004c.298.002.525-.023.635-.07.11-.048.095-.114-.042-.185-2.126-.36-2.204-.399-3.764-.168l-2.072-.107.035-.002Zm28.017.986-.158-.02.158.02Zm258.133 38.175-.037.061.04-.067.347.043.023-.038-.373.001ZM293.557 9.799c-.49-.067-.986-.128-1.483-.184a3.226 3.226 0 0 0-.356-.005.97.97 0 0 0-.237.033c-.04.067.238.113.49.145.319.042.644.069.943.077.299.009.56 0 .756-.028l.286-.024-.399-.014ZM40.737 26.071c.323.011.63.013.912.005 1.252-.054 2.45-.132 3.734-.182 1.62-.127 3.48-.179 5.513-.153.794.012 1.465-.03 1.934-.12a7.166 7.166 0 0 1 1.066-.082l5.373-.147c.333-.03.62-.073.855-.127l-.979-.121a5.799 5.799 0 0 0-.979.052c-.267.069-.719.096-1.265.076a59.233 59.233 0 0 0-1.611-.026c-.985.003-1.976.018-2.964.027-.385.19-1.52.104-2.491.085l-.75.009c-2.454.099-4.798.235-7.02.408-.43.03-.8.076-1.1.14-.112.048-.148.109-.105.177l-.157-.02.034-.001Zm109.564 18.287c.596.014 1.215.04 1.851.08.489.041.967.066 1.413.074 2.503.043 5.11.142 7.788.296.351.023.687.034.997.034l2.192-.04c.691-.021.704-.044.201-.339a47.86 47.86 0 0 0-1.263-.156c-.252-.032-.663-.082-.759-.035-.585.13-1.654.046-2.552.019-2.601-.072-5.284-.177-7.91-.263a42.657 42.657 0 0 0-1.607-.032 9.098 9.098 0 0 0-.862.024 1.032 1.032 0 0 0-.18.019c-.046.01-.074.023-.083.038-.01.016 0 .034.029.053a.542.542 0 0 0 .135.057c.215.066.463.129.737.187l-.127-.016Zm19.054-42.841 2.562-.035c.307-.004.568-.043.897-.027 1.754.054 3.379.039 4.804-.044.485-.033 1.053-.04 1.672-.02 1.896.062 3.684.064 5.316.008a49.776 49.776 0 0 0 2.947-.113c.07-.014.113-.034.128-.058.014-.024-.001-.052-.045-.08-.012-.019-.043-.039-.091-.058a1.29 1.29 0 0 0-.19-.056 3.364 3.364 0 0 0-.526-.07 30.6 30.6 0 0 0-3.167-.088c-.87.034-1.807.044-2.796.03-.947-.004-1.589.108-2.759.023-.494-.028-.931-.02-1.235.026-.613.074-1.468.078-2.413.012a22.883 22.883 0 0 0-1.601-.044c-1.201.025-2.348.074-3.461.121-.35.011-.726.013-1.12.005l-5.571-.093c-1.339-.028-2.674-.062-3.988-.076a37.583 37.583 0 0 0-2.964.027c-.949.05-1.984.07-3.085.06-1.71.027-3.411.037-5.273.034-1.187.002-2.403-.005-3.643-.027-.628-.03-1.161-.006-1.496.065-.204.058-.684.01-1.083-.003-2.126-.13-4.12-.161-5.843-.09-.22.011-.461.015-.719.012-1.659-.002-3.378-.018-4.97-.018-.42.005-.814.02-1.179.045.039.04.15.083.311.12.161.039.358.068.552.082 1.506.112 2.96.17 4.301.175 2.233-.014 4.572.018 6.992.095 1.879.079 3.591.062 5.011-.048 1.109-.082 2.553-.051 4.082.088.654.066 1.29.092 1.819.076a18.299 18.299 0 0 1 1.719.015c1.318.062 2.586.091 3.778.086 1.166-.023 2.253-.085 3.451-.104 1.197-.019 3.02-.008 4.496-.04 1.477-.032 2.936-.037 4.38-.013ZM63.182-1.737c.136.172.614.279 1.13.324 1.775.204 3.53.29 4.97.246.779-.063 1.816-.039 2.909.068 1.272.11 2.462.128 3.358.051.22-.013.388-.042.49-.083l.062-.105a2.954 2.954 0 0 0-.337-.077 4.695 4.695 0 0 0-.4-.05l-5.882-.197-1.025-.044a70.196 70.196 0 0 0-5.275-.133ZM74.751.985c.918.281.921.276 1.391.34 2.27.267 4.536.41 6.532.415.444-.001.82-.028 1.097-.08.143-.006.234-.028.253-.06.02-.033-.035-.073-.15-.112l-.73-.198a154.24 154.24 0 0 0-3.912-.204c-1.49-.059-2.81-.061-4.355-.085l-.126-.016Zm75.44 42.13c.855.386.859.38 2.291.48.998.071 1.965.113 2.875.124 1.111.012 2.25.033 3.358.051.271.013.5.002.643-.028.144-.031.191-.08.134-.138a3.168 3.168 0 0 0-.646-.173 6.864 6.864 0 0 0-.855-.097l-.605-.009c-.734-.02-1.496-.048-2.205-.052-.461.016-.994.003-1.558-.036a19.943 19.943 0 0 1-1.695-.194l-1.737.072ZM79.318-1.232c.229.067.487.131.768.19a23 23 0 0 0 3.233.264c.468.01.897-.027 1.374.027.855.07 1.684.108 2.441.11 0 0 .213-.015.283-.018l.145-.245a16.94 16.94 0 0 0-1.105-.137c-1.25-.065-2.477-.11-3.701-.16-1.224-.05-1.651-.072-2.452-.094a14.82 14.82 0 0 0-.986.063Zm-27.05 30.433 1.635.501a9.366 9.366 0 0 0 1.407.022c.384-.029.637-.093.72-.182.135-.042.149-.105.038-.174-.11-.07-.336-.14-.63-.198-.283-.07-.606-.13-.949-.182-.343-.05-.699-.089-1.045-.113l-1.176.326Zm13.61-2.495a30.64 30.64 0 0 0-2.99-.101c-.565.05-1.332.034-2.142-.045-1.473-.155-2.894-.199-3.961-.12 0 0-.04.067-.22.086-.182.02.536.067.694.086 1.157.048 2.322.085 3.328.102.625 0 1.286.015 1.972.047.943.05 1.838.065 2.649.047 0 0 .313-.014.667-.096l.003-.006ZM180.06.61a19.076 19.076 0 0 0-3.207-.308c-.374-.004-.677.02-.861.071-.183.051-.237.125-.152.21l1.168.145c.985-.004 1.825-.049 3.052-.118Zm95.594 7.952c-.41-.076-.861-.134-1.303-.168a9.346 9.346 0 0 0-1.194-.022c-.174.008-.056.095-.086.145-.019.011-.019.025.001.04a.37.37 0 0 0 .112.047c.053.015.12.03.192.04a11.07 11.07 0 0 0 1.439.05c.357-.015.641-.052.826-.11l.013-.022Zm6.405 1.086c-.063-.045-.198-.092-.38-.132a4.476 4.476 0 0 0-.609-.086c-.373-.002-.712.01-1.005.037-.317.02-.089.15.34.227.182.03.376.055.567.07.191.016.374.022.534.018a2.06 2.06 0 0 0 .387-.037c.095-.022.15-.051.159-.086l.007-.011ZM95.945-.755c-.955-.16-1.69-.12-2.5-.184-.809-.065-1.008-.072-.9.031.109.103.663.083 1.01.126.47.057.942.09 1.364.094.422.005.777-.018 1.026-.067Zm199.126 27.099a36.803 36.803 0 0 0-1.48-.076c-.063.015-.103.034-.116.057-.014.023-.001.049.036.076 0 0 .325.082.514.106.698.08.732-.035 1.046-.164Zm71.537 14.921c.343.108.502.182.777.234.126.018.256.03.381.038.125.007.241.008.34.003.12-.03.148-.079.079-.133 0 0-.349-.097-.482-.102a22.158 22.158 0 0 0-1.095-.04ZM79.68-1.67c-.726-.09-1.42-.176-1.923-.07 1.153.112 1.153.112 1.923.07ZM91.44-.644c-.733-.193-1.163-.21-1.515-.188-.075.006-.124.018-.14.035-.018.018 0 .04.047.061.049.022.125.044.219.062.093.018.199.031.3.038.382.006.747.003 1.09-.008Zm37.737.081c.016-.028.036-.061-.153-.085a1.582 1.582 0 0 0-.348-.043l-.033.056.534.072Zm26.205 46.184-.422.025.19.024.499.014-.267-.063ZM303.868 9.213c-.158-.02-.316-.04-.339 0-.033.006-.054.014-.06.025-.007.01.002.023.024.036l.315.039.06-.1Zm-24.584.311c-.104-.002-.197 0-.275.008l-.02.033.315.04-.02-.08Zm-214.24 7.954a4.704 4.704 0 0 0-.379-.047l-.157-.02s.17.057.264.069c.095.012.171-.003.272-.002Z" fill="#DF6951"/></g></svg>